<svg width="174" height="34" viewBox="0 0 174 34" fill="none" xmlns="http://www.w3.org/2000/svg">
<path d="M28.1172 17.0547C28.1172 17.8984 27.9688 18.8125 27.6719 19.7969C27.375 20.7656 26.8906 21.6719 26.2188 22.5156C25.5625 23.3438 24.6953 24.0391 23.6172 24.6016C22.5547 25.1641 21.2578 25.4453 19.7266 25.4453H8.73438V19.6562H19.7266C20.5547 19.6562 21.1953 19.4062 21.6484 18.9062C22.1016 18.3906 22.3281 17.7578 22.3281 17.0078C22.3281 16.2109 22.0703 15.5859 21.5547 15.1328C21.0547 14.6797 20.4453 14.4531 19.7266 14.4531H8.73438C7.90625 14.4531 7.26562 14.7109 6.8125 15.2266C6.35938 15.7266 6.13281 16.3516 6.13281 17.1016V25.6094C6.13281 26.4219 6.38281 27.0547 6.88281 27.5078C7.39844 27.9609 8.03125 28.1875 8.78125 28.1875H19.7266V34H8.73438C7.89062 34 6.97656 33.8516 5.99219 33.5547C5.02344 33.2578 4.11719 32.7812 3.27344 32.125C2.44531 31.4531 1.75 30.5859 1.1875 29.5234C0.625 28.4453 0.34375 27.1406 0.34375 25.6094V17.0547C0.34375 16.2109 0.492188 15.3047 0.789062 14.3359C1.08594 13.3516 1.5625 12.4453 2.21875 11.6172C2.89062 10.7734 3.75781 10.0703 4.82031 9.50781C5.89844 8.94531 7.20312 8.66406 8.73438 8.66406H19.7266C20.5703 8.66406 21.4766 8.8125 22.4453 9.10938C23.4297 9.40625 24.3359 9.89062 25.1641 10.5625C26.0078 11.2188 26.7109 12.0859 27.2734 13.1641C27.8359 14.2266 28.1172 15.5234 28.1172 17.0547Z" fill="#FF0000"/>
<path d="M56.7109 25.4453C56.7109 26.4922 56.5781 27.4375 56.3125 28.2812C56.0469 29.1094 55.6953 29.8438 55.2578 30.4844C54.8203 31.1094 54.3125 31.6484 53.7344 32.1016C53.1562 32.5391 52.5469 32.8984 51.9062 33.1797C51.2812 33.4609 50.6406 33.6719 49.9844 33.8125C49.3438 33.9375 48.7344 34 48.1562 34H31.6562V27.9062H48.1094C48.9375 27.9062 49.5625 27.6953 49.9844 27.2734C50.4062 26.8516 50.6172 26.2422 50.6172 25.4453C50.5391 23.8203 49.7188 23.0078 48.1562 23.0078H38.7109C37.3672 23.0078 36.2266 22.7734 35.2891 22.3047C34.3516 21.8359 33.5859 21.25 32.9922 20.5469C32.4141 19.8438 31.9922 19.0859 31.7266 18.2734C31.4766 17.4609 31.3516 16.7031 31.3516 16C31.3516 14.6406 31.5938 13.5 32.0781 12.5781C32.5625 11.6406 33.1719 10.8828 33.9062 10.3047C34.6406 9.72656 35.4375 9.3125 36.2969 9.0625C37.1562 8.79688 37.9609 8.66406 38.7109 8.66406H53.6875V14.7578H38.7578C38.4453 14.7578 38.1953 14.7969 38.0078 14.875C37.8359 14.9375 37.7031 15.0312 37.6094 15.1562C37.5312 15.2656 37.4844 15.3906 37.4688 15.5312C37.4531 15.6562 37.4453 15.7812 37.4453 15.9062C37.4609 16.1562 37.5078 16.3516 37.5859 16.4922C37.6641 16.6328 37.7578 16.7344 37.8672 16.7969C37.9922 16.8594 38.125 16.8984 38.2656 16.9141C38.4219 16.9141 38.5703 16.9141 38.7109 16.9141H48.1562C49.7188 16.9141 51.0469 17.1953 52.1406 17.7578C53.2344 18.3203 54.1172 19.0312 54.7891 19.8906C55.4609 20.7344 55.9453 21.6562 56.2422 22.6562C56.5547 23.6562 56.7109 24.5859 56.7109 25.4453ZM83.6172 14.7578H72.9766V34H66.8125V14.7578H58.8906V8.66406H66.8125V0.390625H72.9766V8.66406H83.6172V14.7578ZM115.094 25.4453C115.094 26.4922 114.961 27.4375 114.695 28.2812C114.43 29.1094 114.078 29.8438 113.641 30.4844C113.203 31.1094 112.695 31.6484 112.117 32.1016C111.539 32.5391 110.93 32.8984 110.289 33.1797C109.664 33.4609 109.023 33.6719 108.367 33.8125C107.727 33.9375 107.117 34 106.539 34H95.5469C94.7031 34 93.7812 33.8516 92.7812 33.5547C91.7812 33.2578 90.8516 32.7734 89.9922 32.1016C89.1484 31.4141 88.4375 30.5312 87.8594 29.4531C87.2969 28.3594 87.0156 27.0234 87.0156 25.4453V17.1953C87.0156 15.6328 87.2969 14.3125 87.8594 13.2344C88.4375 12.1406 89.1484 11.2578 89.9922 10.5859C90.8516 9.89844 91.7812 9.40625 92.7812 9.10938C93.7812 8.8125 94.7031 8.66406 95.5469 8.66406H106.539C108.102 8.66406 109.43 8.94531 110.523 9.50781C111.617 10.0703 112.5 10.7812 113.172 11.6406C113.844 12.4844 114.328 13.4062 114.625 14.4062C114.938 15.4062 115.094 16.3359 115.094 17.1953V25.4453ZM109 17.2422C109 16.3984 108.789 15.7734 108.367 15.3672C107.945 14.9609 107.336 14.7578 106.539 14.7578H95.5938C94.7812 14.7578 94.1641 14.9688 93.7422 15.3906C93.3203 15.7969 93.1094 16.3984 93.1094 17.1953V25.4453C93.1094 26.2422 93.3203 26.8516 93.7422 27.2734C94.1641 27.6953 94.7812 27.9062 95.5938 27.9062H106.539C107.367 27.9062 107.984 27.6953 108.391 27.2734C108.797 26.8516 109 26.2422 109 25.4453V17.2422ZM142.469 14.7578H128.758C127.93 14.7578 127.305 14.9688 126.883 15.3906C126.461 15.7969 126.25 16.3984 126.25 17.1953V34H120.156V17.1953C120.156 16.1484 120.289 15.2109 120.555 14.3828C120.82 13.5547 121.172 12.8281 121.609 12.2031C122.062 11.5625 122.578 11.0234 123.156 10.5859C123.734 10.1328 124.336 9.76562 124.961 9.48438C125.602 9.20312 126.242 9 126.883 8.875C127.539 8.73438 128.148 8.66406 128.711 8.66406H142.469V14.7578ZM173.664 17.0547C173.664 17.8984 173.516 18.8125 173.219 19.7969C172.922 20.7656 172.438 21.6719 171.766 22.5156C171.109 23.3438 170.242 24.0391 169.164 24.6016C168.102 25.1641 166.805 25.4453 165.273 25.4453H154.281V19.6562H165.273C166.102 19.6562 166.742 19.4062 167.195 18.9062C167.648 18.3906 167.875 17.7578 167.875 17.0078C167.875 16.2109 167.617 15.5859 167.102 15.1328C166.602 14.6797 165.992 14.4531 165.273 14.4531H154.281C153.453 14.4531 152.812 14.7109 152.359 15.2266C151.906 15.7266 151.68 16.3516 151.68 17.1016V25.6094C151.68 26.4219 151.93 27.0547 152.43 27.5078C152.945 27.9609 153.578 28.1875 154.328 28.1875H165.273V34H154.281C153.438 34 152.523 33.8516 151.539 33.5547C150.57 33.2578 149.664 32.7812 148.82 32.125C147.992 31.4531 147.297 30.5859 146.734 29.5234C146.172 28.4453 145.891 27.1406 145.891 25.6094V17.0547C145.891 16.2109 146.039 15.3047 146.336 14.3359C146.633 13.3516 147.109 12.4453 147.766 11.6172C148.438 10.7734 149.305 10.0703 150.367 9.50781C151.445 8.94531 152.75 8.66406 154.281 8.66406H165.273C166.117 8.66406 167.023 8.8125 167.992 9.10938C168.977 9.40625 169.883 9.89062 170.711 10.5625C171.555 11.2188 172.258 12.0859 172.82 13.1641C173.383 14.2266 173.664 15.5234 173.664 17.0547Z" fill="black"/>
</svg>
