<svg width="41" height="39" viewBox="0 0 41 39" fill="none" xmlns="http://www.w3.org/2000/svg">
<path d="M36.3516 20.4453C36.3516 21.4922 36.2188 22.4375 35.9531 23.2812C35.6875 24.1094 35.3359 24.8438 34.8984 25.4844C34.4609 26.1094 33.9531 26.6484 33.375 27.1016C32.7969 27.5391 32.1875 27.8984 31.5469 28.1797C30.9219 28.4609 30.2812 28.6719 29.625 28.8125C28.9844 28.9375 28.375 29 27.7969 29H11.2969V22.9062H27.75C28.5781 22.9062 29.2031 22.6953 29.625 22.2734C30.0469 21.8516 30.2578 21.2422 30.2578 20.4453C30.1797 18.8203 29.3594 18.0078 27.7969 18.0078H18.3516C17.0078 18.0078 15.8672 17.7734 14.9297 17.3047C13.9922 16.8359 13.2266 16.25 12.6328 15.5469C12.0547 14.8438 11.6328 14.0859 11.3672 13.2734C11.1172 12.4609 10.9922 11.7031 10.9922 11C10.9922 9.64062 11.2344 8.5 11.7188 7.57812C12.2031 6.64062 12.8125 5.88281 13.5469 5.30469C14.2812 4.72656 15.0781 4.3125 15.9375 4.0625C16.7969 3.79688 17.6016 3.66406 18.3516 3.66406H33.3281V9.75781H18.3984C18.0859 9.75781 17.8359 9.79688 17.6484 9.875C17.4766 9.9375 17.3438 10.0312 17.25 10.1562C17.1719 10.2656 17.125 10.3906 17.1094 10.5312C17.0938 10.6562 17.0859 10.7812 17.0859 10.9062C17.1016 11.1562 17.1484 11.3516 17.2266 11.4922C17.3047 11.6328 17.3984 11.7344 17.5078 11.7969C17.6328 11.8594 17.7656 11.8984 17.9062 11.9141C18.0625 11.9141 18.2109 11.9141 18.3516 11.9141H27.7969C29.3594 11.9141 30.6875 12.1953 31.7812 12.7578C32.875 13.3203 33.7578 14.0312 34.4297 14.8906C35.1016 15.7344 35.5859 16.6562 35.8828 17.6562C36.1953 18.6562 36.3516 19.5859 36.3516 20.4453Z" fill="black"/>
<path d="M30.1172 21.0547C30.1172 21.8984 29.9688 22.8125 29.6719 23.7969C29.375 24.7656 28.8906 25.6719 28.2188 26.5156C27.5625 27.3438 26.6953 28.0391 25.6172 28.6016C24.5547 29.1641 23.2578 29.4453 21.7266 29.4453H10.7344V23.6562H21.7266C22.5547 23.6562 23.1953 23.4062 23.6484 22.9062C24.1016 22.3906 24.3281 21.7578 24.3281 21.0078C24.3281 20.2109 24.0703 19.5859 23.5547 19.1328C23.0547 18.6797 22.4453 18.4531 21.7266 18.4531H10.7344C9.90625 18.4531 9.26562 18.7109 8.8125 19.2266C8.35938 19.7266 8.13281 20.3516 8.13281 21.1016V29.6094C8.13281 30.4219 8.38281 31.0547 8.88281 31.5078C9.39844 31.9609 10.0312 32.1875 10.7812 32.1875H21.7266V38H10.7344C9.89062 38 8.97656 37.8516 7.99219 37.5547C7.02344 37.2578 6.11719 36.7812 5.27344 36.125C4.44531 35.4531 3.75 34.5859 3.1875 33.5234C2.625 32.4453 2.34375 31.1406 2.34375 29.6094V21.0547C2.34375 20.2109 2.49219 19.3047 2.78906 18.3359C3.08594 17.3516 3.5625 16.4453 4.21875 15.6172C4.89062 14.7734 5.75781 14.0703 6.82031 13.5078C7.89844 12.9453 9.20312 12.6641 10.7344 12.6641H21.7266C22.5703 12.6641 23.4766 12.8125 24.4453 13.1094C25.4297 13.4063 26.3359 13.8906 27.1641 14.5625C28.0078 15.2188 28.7109 16.0859 29.2734 17.1641C29.8359 18.2266 30.1172 19.5234 30.1172 21.0547Z" fill="#FF0000"/>
</svg>
